ffmpeg version N-95760-g315a449 Copyright (c) 2000-2019 the FFmpeg developers
  built with gcc 7 (Ubuntu 7.4.0-1ubuntu1~18.04.1)
  configuration: --prefix=/home/vagrant/bin
  libavutil      56. 36.100 / 56. 36.100
  libavcodec     58. 62.100 / 58. 62.100
  libavformat    58. 35.100 / 58. 35.100
  libavdevice    58.  9.100 / 58.  9.100
  libavfilter     7. 66.100 /  7. 66.100
  libswscale      5.  6.100 /  5.  6.100
  libswresample   3.  6.100 /  3.  6.100
[xa @ 0x55b6aac23700] Estimating duration from bitrate, this may be inaccurate
Guessed Channel Layout for Input Stream #0.0 : stereo
Input #0, xa, from 'sample1-1.xa':
  Duration: 00:00:00.09, start: 0.000000, bitrate: 191 kb/s
    Stream #0:0: Audio: adpcm_ea_maxis_xa, 22050 Hz, stereo, s16, 189 kb/s
Stream mapping:
  Stream #0:0 -> #0:0 (adpcm_ea_maxis_xa (native) -> aac (native))
Press [q] to stop, [?] for help
Output #0, mp4, to '../diaries/aylin/sample1-1.mp4':
  Metadata:
    encoder         : Lavf58.35.100
    Stream #0:0: Audio: aac (LC) (mp4a / 0x6134706D), 22050 Hz, stereo, fltp, 128 kb/s
    Metadata:
      encoder         : Lavc58.62.100 aac
sample1-1.xa: corrupt input packet in stream 0
size=       3kB time=00:00:00.09 bitrate= 251.8kbits/s speed=4.51x    
video:0kB audio:2kB subtitle:0kB other streams:0kB global headers:0kB muxing overhead: 38.925854%
[aac @ 0x55b6aac3cbc0] Qavg: 127.511
